<svg xmlns="http://www.w3.org/2000/svg" xmlns:xlink="http://www.w3.org/1999/xlink" width="816" height="355" viewBox="0 0 816 355"><defs><clipPath id="a"><rect x="4" y="48" width="816" height="355" fill="none"/></clipPath></defs><g transform="translate(-4 -48)" clip-path="url(#a)" style="isolation:isolate"><g transform="translate(-148 -251)"><text transform="translate(148 459)" font-size="210" font-family="DMSans-Bold, DM Sans" font-weight="700" letter-spacing="-0.04em"><tspan x="0" y="0">Pivot</tspan><tspan x="0" y="176" xml:space="preserve">Contr   ls</tspan></text><path d="M71.83,28.739,43.508,56.479V32.243a36.825,36.825,0,0,0-22.047,12.7,35.836,35.836,0,0,0-8.907,24.089,35.836,35.836,0,0,0,8.907,24.089,36.826,36.826,0,0,0,22.047,12.7v12.554a48.562,48.562,0,0,1-30.95-16.353A47.86,47.86,0,0,1,0,69.034a47.837,47.837,0,0,1,12.554-33A48.551,48.551,0,0,1,43.5,19.685V.417ZM99.276,62.9H86.721A37.486,37.486,0,0,0,80.3,47.425l8.76-8.76A48.87,48.87,0,0,1,99.279,62.9ZM56.062,105.825A37.4,37.4,0,0,0,71.245,99.4l9.051,9.051a50.282,50.282,0,0,1-24.236,9.927V105.825ZM80.3,90.642a37.424,37.424,0,0,0,6.423-15.477H99.276A48.888,48.888,0,0,1,89.055,99.4Z" transform="translate(701.122 512.399)" stroke="#000" stroke-width="8"/></g></g></svg>